<svg width="51" height="51" viewBox="0 0 51 51" fill="none" xmlns="http://www.w3.org/2000/svg">
<path id="Vector" d="M25.5 0C11.4152 0 0 11.4152 0 25.5C0 39.5848 11.4152 51 25.5 51C39.5848 51 51 39.5848 51 25.5C51 11.4152 39.5848 0 25.5 0ZM25.5 5.1C36.7459 5.1 45.9 14.2541 45.9 25.5C45.9 26.6953 45.7805 27.8707 45.5812 29.0063C44.9537 28.8668 44.0273 28.6975 42.9516 28.6875C42.1547 28.6775 41.1586 28.807 40.3219 28.9266C40.6107 28.04 40.8 27.0639 40.8 26.0578C40.8 23.6074 39.6047 21.3264 37.6922 19.4438C38.2201 17.4814 38.7381 14.1146 37.3734 12.75C33.3393 12.75 31.108 15.6287 30.9984 15.7781C29.7533 15.4793 28.4684 15.3 27.0938 15.3C25.3307 15.3 23.6473 15.6187 22.0734 16.0969L22.5516 15.6984C22.5516 15.6984 20.3104 12.5906 16.1766 12.5906C14.7322 14.0449 15.3896 17.7305 15.9375 19.6031C13.9852 21.4658 12.75 23.6672 12.75 26.0578C12.75 26.8945 12.9492 27.6914 13.1484 28.4484C12.4412 28.3687 9.89121 28.1297 8.84531 28.1297C7.91895 28.1297 6.48457 28.3488 5.33906 28.6078C5.17969 27.5918 5.1 26.5559 5.1 25.5C5.1 14.2541 14.2541 5.1 25.5 5.1ZM8.84531 28.7672C9.85137 28.7672 12.9094 29.1258 13.3078 29.1656C13.3576 29.3051 13.4074 29.4346 13.4672 29.5641C12.3715 29.4645 10.2498 29.315 8.84531 29.4844C7.90899 29.5939 6.71367 29.9326 5.65781 30.2016C5.57812 29.8828 5.47852 29.574 5.41875 29.2453C6.53437 29.0063 7.99863 28.7672 8.84531 28.7672ZM42.9516 29.325C43.9676 29.335 44.8939 29.5043 45.5016 29.6437C45.4717 29.8131 45.382 29.9525 45.3422 30.1219C44.6947 29.9725 43.6289 29.7533 42.3937 29.7234C41.7961 29.7135 40.8398 29.7434 40.0031 29.8031C40.043 29.7234 40.0529 29.6437 40.0828 29.5641C40.9494 29.4445 42.0551 29.315 42.9516 29.325ZM10.4391 30.0422C11.8734 30.0521 13.2182 30.1518 13.7859 30.2016C15.1207 32.6918 17.8201 34.5346 21.9937 35.3016C20.9678 35.8693 20.0514 36.6662 19.3641 37.6125C18.7664 37.6623 18.1389 37.6922 17.5312 37.6922C15.7582 37.6922 14.6525 36.1084 13.7063 34.7437C12.75 33.3791 11.5746 33.2297 10.9172 33.15C10.2498 33.0703 10.0207 33.4488 10.3594 33.7078C12.3018 35.202 12.999 36.975 13.7859 38.5687C14.4932 40.0031 15.9773 40.8 17.6109 40.8H17.9297C17.8799 41.0789 17.85 41.3379 17.85 41.5969V44.3859C11.9631 42.0053 7.48066 36.975 5.81719 30.7594C6.86309 30.5004 8.03848 30.2314 8.925 30.1219C9.3334 30.0721 9.85137 30.0322 10.4391 30.0422ZM42.3937 30.3609C43.5393 30.3908 44.5553 30.61 45.1828 30.7594C43.7783 36.0387 40.3119 40.4314 35.7 43.1109V41.5969C35.7 39.4254 33.9867 36.6363 31.5562 35.3016C35.5904 34.5645 38.2201 32.8014 39.6047 30.4406C40.5709 30.3709 41.7064 30.341 42.3937 30.3609ZM26.775 40.8C27.4723 40.8 28.05 41.3777 28.05 42.075V45.7406C27.2133 45.8502 26.3666 45.9 25.5 45.9V42.075C25.5 41.3777 26.0777 40.8 26.775 40.8ZM21.675 43.35C22.3723 43.35 22.95 43.9277 22.95 44.625V45.7406C22.0934 45.6311 21.2268 45.4717 20.4 45.2625V44.625C20.4 43.9277 20.9777 43.35 21.675 43.35ZM31.875 43.35C32.4926 43.35 33.0305 43.7982 33.15 44.3859C32.3232 44.7246 31.4766 45.0334 30.6 45.2625V44.625C30.6 43.9277 31.1777 43.35 31.875 43.35Z" fill="#8B32C5"/>
</svg>
