<svg width="26" height="26" viewBox="0 0 26 26" fill="none" xmlns="http://www.w3.org/2000/svg">
<path id="Vector" d="M13 0C5.81953 0 0 5.81953 0 13C0 20.1805 5.81953 26 13 26C20.1805 26 26 20.1805 26 13C26 5.81953 20.1805 0 13 0ZM13 2.6C18.7332 2.6 23.4 7.2668 23.4 13C23.4 13.6094 23.3391 14.2086 23.2375 14.7875C22.9176 14.7164 22.4453 14.6301 21.8969 14.625C21.4906 14.6199 20.9828 14.6859 20.5562 14.7469C20.7035 14.2949 20.8 13.7973 20.8 13.2844C20.8 12.0352 20.1906 10.8723 19.2156 9.9125C19.4848 8.91211 19.7488 7.1957 19.0531 6.5C16.9965 6.5 15.859 7.96758 15.8031 8.04375C15.1684 7.89141 14.5133 7.8 13.8125 7.8C12.9137 7.8 12.0555 7.9625 11.2531 8.20625L11.4969 8.00312C11.4969 8.00312 10.3543 6.41875 8.24687 6.41875C7.51055 7.16016 7.8457 9.03906 8.125 9.99375C7.12969 10.9434 6.5 12.0656 6.5 13.2844C6.5 13.7109 6.60156 14.1172 6.70312 14.5031C6.34258 14.4625 5.04258 14.3406 4.50937 14.3406C4.03711 14.3406 3.30586 14.4523 2.72187 14.5844C2.64062 14.0664 2.6 13.5383 2.6 13C2.6 7.2668 7.2668 2.6 13 2.6ZM4.50937 14.6656C5.02226 14.6656 6.58125 14.8484 6.78437 14.8687C6.80976 14.9398 6.83516 15.0059 6.86562 15.0719C6.30703 15.0211 5.22539 14.9449 4.50937 15.0312C4.03203 15.0871 3.42266 15.2598 2.88437 15.3969C2.84375 15.2344 2.79297 15.077 2.7625 14.9094C3.33125 14.7875 4.07773 14.6656 4.50937 14.6656ZM21.8969 14.95C22.4148 14.9551 22.8871 15.0414 23.1969 15.1125C23.1816 15.1988 23.1359 15.2699 23.1156 15.3562C22.7855 15.2801 22.2422 15.1684 21.6125 15.1531C21.3078 15.148 20.8203 15.1633 20.3937 15.1937C20.4141 15.1531 20.4191 15.1125 20.4344 15.0719C20.8762 15.0109 21.4398 14.9449 21.8969 14.95ZM5.32187 15.3156C6.05312 15.3207 6.73867 15.3715 7.02812 15.3969C7.70859 16.6664 9.08477 17.6059 11.2125 17.9969C10.6895 18.2863 10.2223 18.6926 9.87187 19.175C9.56719 19.2004 9.24726 19.2156 8.9375 19.2156C8.03359 19.2156 7.46992 18.4082 6.9875 17.7125C6.5 17.0168 5.90078 16.9406 5.56562 16.9C5.22539 16.8594 5.10859 17.0523 5.28125 17.1844C6.27148 17.9461 6.62695 18.85 7.02812 19.6625C7.38867 20.3937 8.14531 20.8 8.97812 20.8H9.14062C9.11523 20.9422 9.1 21.0742 9.1 21.2062V22.6281C6.09883 21.4145 3.81367 18.85 2.96562 15.6812C3.49883 15.5492 4.09805 15.4121 4.55 15.3562C4.7582 15.3309 5.02226 15.3105 5.32187 15.3156ZM21.6125 15.4781C22.1965 15.4934 22.7145 15.6051 23.0344 15.6812C22.3184 18.3727 20.5512 20.6121 18.2 21.9781V21.2062C18.2 20.0992 17.3266 18.6773 16.0875 17.9969C18.1441 17.6211 19.4848 16.7223 20.1906 15.5187C20.6832 15.4832 21.2621 15.468 21.6125 15.4781ZM13.65 20.8C14.0055 20.8 14.3 21.0945 14.3 21.45V23.3187C13.8734 23.3746 13.4418 23.4 13 23.4V21.45C13 21.0945 13.2945 20.8 13.65 20.8ZM11.05 22.1C11.4055 22.1 11.7 22.3945 11.7 22.75V23.3187C11.2633 23.2629 10.8215 23.1816 10.4 23.075V22.75C10.4 22.3945 10.6945 22.1 11.05 22.1ZM16.25 22.1C16.5648 22.1 16.8391 22.3285 16.9 22.6281C16.4785 22.8008 16.0469 22.9582 15.6 23.075V22.75C15.6 22.3945 15.8945 22.1 16.25 22.1Z" fill="#8B32C5"/>
</svg>
